<svg xmlns="http://www.w3.org/2000/svg" viewBox="0 0 1688.4887 898.0709">
 <g>
  <path d="m1390 455.07 298-347v694z" fill="#27c927"/>
  <path d="m608 488.07h78v245h-78zm-283 204h98v-204h77v245h-210zm849-237-124-147v295zm358 423-320-378.08-237 281.08v-652l237 281.48 320-377.48h75l-357 422 357 423zm-1415.8 18.88-1.17-408.88h214l-34 40h-100v330h593v-858h219l-32 40h-108v858h-750.64l-1.3565-.00010z" fill="#fff"/>
  <path d="m347.5 14.071 347.5 381h-695z" fill="#007eff"/>
  <path d="m434.94 354.56c1.8767-27.904-49.621-30.72-51.418-39.019-.50814-4.3569 6.2744-3.3294 10.327-3.5269h36.145v-20.016l-48.901-.0002c-13.347.1223-25.201 10.136-25.498 22.819 2.4259 31.998 48.946 26.914 51.651 39.339 0 2.9732-2.7822 3.8947-5.4243 3.8947h-46.827v20.016h49.618c11.709-1.28 28.875-6.0919 30.328-23.507zm-99.946 3.4907h-45.572l40.45-43.555c2.4295-3.8881 4.6765-8.2163 3.3696-13.097-1.7047-6.3671-7.3892-8.8283-10.427-9.4007h-63.82v20.016h39.267l-41.11 42.8c-2.9978 4.7947-6.0745 8.467-2.8668 15.609 4.3256 6.7321 11.216 7.3765 13.964 7.6443h66.746zm-124.77 19.822c18.252-.081 39.814-19.983 31.496-49.345-10.872-31.437-54.126-33.664-55.245-45.083-.33887-1.8077.36805-6.1959 3.2134-6.4581h310.87c3.3569-.4046 7.4297 1.6291 8.4386 4.1676v35.738c-1.3734 2.4595-4.2266 3.8005-6.4724 4.708-1.9395 1.0219-10.822 1.0199-14.55 0-3.2606-.8949-6.9588-2.5241-6.9775-4.9087v-34.698h-30v36.708c4.6539 18.796 20.392 22.381 28 24.963v34.405h31v-34.612c12.78-3.8403 27.494-11.184 29-25.478v-42.993c.15269-13.172-15.077-20.852-34.799-22.017h-318.62c-13.652-1.1612-47.315 22.001-20.899 52.564 17.834 20.326 42.278 22.94 47.909 33.219 1.4457 5.3999-.96661 9.2934-7.3065 9.2934l-50.281.039v29.984h55z" fill="#fff"/>
 </g>
</svg>
