<svg xmlns="http://www.w3.org/2000/svg" viewBox="0 0 1688.5 898.1">
  <path fill="#27c927" d="M1391.3 455.3l297.2-347.6v695z"/>
  <path fill="#1b2065" d="M608 488.6h78v244.2h-78zM324.3 692.3h98.2V488.6H501v244.2H291.4zm850-237.3L1050 307.5V603zm357.4 422.6L1212.4 500 974.7 781V129.6l237.7 281L1532 33h74.7L1250 455.3l356.6 422.3zM116.2 897c-.3-144-.2-253.4-.2-408h212.8l-33 40.4H194.4v328.2h594V0H1007l-32.6 40H866.6v858H116.2z"/>
  <path fill="#007eff" d="M435 354.6c1.8-28-49.7-30.7-51.5-39-.5-4.4 6.3-3.5 10.4-3.7l36-.4V292l-49 .7c-13.4 0-25 9.5-25.6 22.2 2.4 31.6 49 26.6 51.7 39 0 3-2.7 4-5.4 4h-46.2l-.7 20.2h49.6c11.7-1.2 29-6.4 30.3-23.8zM334.6 358l-45.3-.5 40.5-43c2.3-3.8 4.6-8.2 3.2-13-1.7-6.4-7.3-8.4-10.4-9L259 292v20h39.3l-41 42.8c-3 4.8-6.2 8.5-3 15.6 4.3 6.8 11.2 7 14 7.2l66.6.6zM210 378c18.4-.2 40-20 31.6-49.4-10.8-31.4-54-33.7-55.2-45-.4-2 .3-6.3 3.2-6.5l311 .4c3.2-.4 7 1.5 8 4V317c-1.4 2.4-4 3.7-6.2 4.6-2 1-10.8 1-14.5 0-3.5-.8-7-2.5-7-5l-.5-34.2h-30v36.3c4.7 18.8 20.7 22.4 28.4 25l.2 34.5h31l.3-34.7c12.8-4 27-11.2 28.5-25.5l.4-43c0-13-15.4-21-35-22h-319c-13.6-1-47.2 22-21 52.6 18 20.3 42.5 23 48 33.2 1.5 5.4-1 9.6-7.2 9.6l-50-.3-.3 29.6 55 .5zM348 14.3l348 381H0z"/>
</svg>
