<?xml version="1.0" encoding="UTF-8" standalone="no"?>
<!-- Created with Inkscape (http://www.inkscape.org/) -->

<svg
   xmlns:dc="http://purl.org/dc/elements/1.1/"
   xmlns:cc="http://creativecommons.org/ns#"
   xmlns:rdf="http://www.w3.org/1999/02/22-rdf-syntax-ns#"
   xmlns:svg="http://www.w3.org/2000/svg"
   xmlns="http://www.w3.org/2000/svg"
   xmlns:sodipodi="http://sodipodi.sourceforge.net/DTD/sodipodi-0.dtd"
   xmlns:inkscape="http://www.inkscape.org/namespaces/inkscape"
   width="476.52902mm"
   height="253.45557mm"
   viewBox="0 0 1688.4887 898.0709"
   id="svg2"
   version="1.1"
   inkscape:version="0.91 r13725"
   sodipodi:docname="logo_inkscape.svg"
   enable-background="new">
  <defs
     id="defs3" />
  <sodipodi:namedview
     id="base"
     pagecolor="#ffffff"
     bordercolor="#666666"
     borderopacity="1.0"
     inkscape:pageopacity="0.0"
     inkscape:pageshadow="2"
     inkscape:zoom="0.35355339"
     inkscape:cx="890.66296"
     inkscape:cy="400.29687"
     inkscape:document-units="px"
     inkscape:current-layer="layer1"
     showgrid="false"
     inkscape:object-paths="true"
     inkscape:window-width="1366"
     inkscape:window-height="717"
     inkscape:window-x="0"
     inkscape:window-y="0"
     inkscape:window-maximized="1"
     fit-margin-top="0"
     fit-margin-left="0"
     fit-margin-right="0"
     fit-margin-bottom="0" />
  <metadata
     id="metadata7">
    <rdf:RDF>
      <cc:Work
         rdf:about="">
        <dc:format>image/svg+xml</dc:format>
        <dc:type
           rdf:resource="http://purl.org/dc/dcmitype/StillImage" />
        <dc:title />
      </cc:Work>
    </rdf:RDF>
  </metadata>
  <g
     inkscape:groupmode="layer"
     id="layer1"
     inkscape:label="Layer 1">
    <path
       sodipodi:nodetypes="cccc"
       inkscape:connector-curvature="0"
       style="fill:#27c927;fill-opacity:1"
       d="m 1390,455.0709 298,-347 0,693.99998 z"
       id="path4173" />
    <path
       sodipodi:nodetypes="ccccccccccccccccccccccccccccccccccccccccc"
       inkscape:connector-curvature="0"
       id="path4169"
       style="fill:#ffffff;fill-opacity:1"
       d="m 608,488.0709 78,0 0,244.99998 -78,0 z m -283,203.99998 98,0 0,-203.99998 77,0 0,244.99998 -210,0 z m 849,-236.99998 -124,-147 0,294.99998 z m 358,422.99998 -320,-378.07907 -237,281.07907 0,-651.99998 237,281.47927 320,-377.47927 75,0 -357,422 357,422.99998 z M 116.17008,896.94598 115,488.0709 l 214,0 -34,40 -100,0 0,329.99998 593,0 0,-857.99998 219,0 -32,40 -108,0 0,857.99998 -750.64348,0 -1.35652,-10e-5 z" />
    <path
       sodipodi:nodetypes="cccc"
       inkscape:connector-curvature="0"
       id="path3431"
       style="fill:#007eff;fill-opacity:1"
       d="m 347.5,14.0709 347.5,381 -695,0 z" />
    <path
       sodipodi:nodetypes="ccccccccccccccccsccccccccccccccccccscccccccccccccccccc"
       inkscape:connector-curvature="0"
       id="path3431-3"
       style="fill:#ffffff;fill-opacity:1"
       d="m 434.94197,354.5613 c 1.8767,-27.9044 -49.62129,-30.7204 -51.41824,-39.0194 -0.50814,-4.3569 6.2744,-3.3294 10.32697,-3.5269 l 36.1453,0 0,-20.0159 -48.90134,-2e-4 c -13.34715,0.1223 -25.20126,10.1355 -25.49763,22.819 2.42588,31.9978 48.94623,26.9143 51.65079,39.3394 0,2.9732 -2.78217,3.8947 -5.42426,3.8947 l -46.82747,0 0,20.0159 49.61801,0 c 11.70949,-1.28 28.87518,-6.0919 30.32787,-23.5066 z m -99.94585,3.4907 -45.5724,0 40.44994,-43.555 c 2.42952,-3.8881 4.67652,-8.2163 3.36965,-13.0974 -1.70466,-6.3671 -7.38924,-8.8283 -10.42665,-9.4007 l -63.82045,0 0,20.0161 39.26712,0 -41.10992,42.7995 c -2.99775,4.7947 -6.07452,8.467 -2.86675,15.6091 4.32563,6.7321 11.21567,7.3765 13.96388,7.6443 l 66.74558,0 z m -124.7723,19.8216 c 18.2519,-0.081 39.81446,-19.9831 31.49613,-49.3453 -10.87154,-31.4371 -54.12594,-33.664 -55.24547,-45.0833 -0.33887,-1.8077 0.36805,-6.1959 3.21341,-6.4581 l 310.86945,0 c 3.35691,-0.4046 7.42973,1.6291 8.43856,4.1676 l 0,35.7378 c -1.37336,2.4595 -4.22655,3.8005 -6.47243,4.708 -1.93949,1.0219 -10.82163,1.0199 -14.54999,0 -3.26064,-0.8949 -6.95879,-2.5241 -6.97754,-4.9087 l 0,-34.6976 -29.99996,0 0,36.7085 c 4.65387,18.7962 20.39215,22.3808 27.99996,24.9633 l 0,34.4051 30.99996,0 0,-34.6124 c 12.78027,-3.8403 27.49382,-11.184 28.99997,-25.4775 l 0,-42.993 c 0.15269,-13.1723 -15.07708,-20.8524 -34.79894,-22.0173 l -318.62322,0 c -13.65242,-1.1612 -47.31473,22.0013 -20.89893,52.5637 17.83429,20.3255 42.27811,22.9404 47.90894,33.2191 1.44569,5.3999 -0.96661,9.2934 -7.30648,9.2934 l -50.2809,0.039 0,29.9836 54.99993,0 z" />
  </g>
</svg>
