<?xml version="1.0" encoding="UTF-8" standalone="no"?>
<!-- Created with Inkscape (http://www.inkscape.org/) -->

<svg
   xmlns:dc="http://purl.org/dc/elements/1.1/"
   xmlns:cc="http://creativecommons.org/ns#"
   xmlns:rdf="http://www.w3.org/1999/02/22-rdf-syntax-ns#"
   xmlns:svg="http://www.w3.org/2000/svg"
   xmlns="http://www.w3.org/2000/svg"
   xmlns:sodipodi="http://sodipodi.sourceforge.net/DTD/sodipodi-0.dtd"
   xmlns:inkscape="http://www.inkscape.org/namespaces/inkscape"
   width="476.52902mm"
   height="253.45557mm"
   viewBox="0 0 1688.4887 898.0709"
   id="svg2"
   version="1.1"
   inkscape:version="0.91 r13725"
   sodipodi:docname="logo_inkscape.svg">
  <defs
     id="defs3" />
  <sodipodi:namedview
     id="base"
     pagecolor="#ffffff"
     bordercolor="#666666"
     borderopacity="1.0"
     inkscape:pageopacity="0.0"
     inkscape:pageshadow="2"
     inkscape:zoom="256"
     inkscape:cx="347.25775"
     inkscape:cy="882.85275"
     inkscape:document-units="px"
     inkscape:current-layer="layer1"
     showgrid="false"
     inkscape:object-paths="true"
     inkscape:window-width="1366"
     inkscape:window-height="717"
     inkscape:window-x="0"
     inkscape:window-y="0"
     inkscape:window-maximized="1"
     fit-margin-top="0"
     fit-margin-left="0"
     fit-margin-right="0"
     fit-margin-bottom="0" />
  <metadata
     id="metadata7">
    <rdf:RDF>
      <cc:Work
         rdf:about="">
        <dc:format>image/svg+xml</dc:format>
        <dc:type
           rdf:resource="http://purl.org/dc/dcmitype/StillImage" />
        <dc:title />
      </cc:Work>
    </rdf:RDF>
  </metadata>
  <g
     inkscape:label="Layer 1"
     inkscape:groupmode="layer"
     id="layer1"
     transform="translate(-7.55819,-471.36262)">
    <g
       id="g4229">
      <path
         sodipodi:nodetypes="cccc"
         inkscape:connector-curvature="0"
         style="fill:#27c927;fill-opacity:1"
         d="m 1398.8357,926.63361 297.2112,-347.59672 0,694.99671 z"
         id="path4173" />
      <path
         sodipodi:nodetypes="ccccccccccccccccccccccccccccccccccccccccc"
         inkscape:connector-curvature="0"
         id="path4169"
         style="fill:#1b2065;fill-opacity:1"
         d="m 615.43132,959.93361 78.10441,0 0,244.19999 -78.10441,0 z m -283.52213,203.77399 98.22654,0 0,-203.77419 78.3,0 0,244.19999 -209.39025,0 z m 850.08131,-237.35587 -124.5358,-147.46812 0,295.49999 z m 357.3765,422.60457 -319.3698,-377.60187 -237.71147,281.05837 0,-651.5584 237.71147,281.05839 319.427,-377.78093 74.8115,0 -356.7272,422.50174 356.6691,422.3227 z m -1415.63873,19.3523 c -0.28356,-143.7987 -0.18996,-253.3586 -0.19224,-408.07511 l 212.77785,0 -32.81244,40.50011 -101.66541,0 0,328.2 594.05002,0 0,-857.57098 218.64385,0 -32.55291,39.99675 -107.84079,0 0,858.07413 -750.22149,0 -0.18597,-1e-4 z" />
      <path
         sodipodi:nodetypes="ccccccccccccccccsccccccccccccccccccscccccccccccccccccccccc"
         inkscape:connector-curvature="0"
         id="path3431"
         style="fill:#007eff;fill-opacity:1"
         d="m 442.50415,825.94567 c 1.87672,-27.88203 -49.62134,-30.69579 -51.41829,-38.98808 -0.50814,-4.35342 6.27441,-3.47606 10.32698,-3.67334 l 36.16289,-0.11061 -0.01,-19.74 -48.90894,0.59654 c -13.34717,0.12215 -25.2013,9.53071 -25.49766,22.2039 2.42588,31.97218 48.94629,26.89291 51.65085,39.30807 0,2.97065 -2.78217,3.91806 -5.42426,3.91806 l -46.27378,-0.0361 -0.61561,20.31577 49.67993,0.0622 c 11.7095,-1.27895 28.87521,-6.4555 30.32789,-23.85641 z m -100.22738,3.5099 -45.29103,-0.58932 40.44999,-42.95268 c 2.42951,-3.88502 4.67652,-8.2098 3.36965,-13.08709 -1.70467,-6.3619 -7.38925,-8.37004 -10.42667,-8.94188 l -63.70458,-0.46188 -0.18838,19.95948 39.3396,0 -41.10996,42.81642 c -2.99775,4.79094 -6.07453,8.46041 -2.86676,15.59678 4.32564,6.72675 11.21568,6.93262 13.9639,7.20031 l 66.64822,0.53793 z m -124.49103,19.78389 c 18.25192,-0.0799 39.81451,-19.9672 31.49616,-49.30585 -10.87155,-31.41191 -54.126,-33.63704 -55.24554,-45.04724 -0.33886,-1.80619 0.36806,-6.1927 3.21342,-6.45459 l 310.86983,0.10558 c 3.35692,-0.40432 7.16889,1.52386 8.17773,4.06032 l -0.11499,35.70906 c -1.37338,2.4577 -3.85072,3.79768 -6.09662,4.70432 -1.93947,1.02114 -10.82163,1.01922 -14.55,-0.003 -3.26064,-0.89412 -6.96162,-2.52205 -6.98018,-4.90472 l -0.26731,-34.30537 -29.89251,0.0957 -0.0518,36.21894 c 4.65388,18.78115 20.65966,22.36299 28.26748,24.94323 l 0.22419,34.47783 31.09518,-0.0442 0.20056,-34.64065 c 12.78028,-3.83713 27.01949,-11.17504 28.52564,-25.4571 l 0.17132,-42.95861 c 0.15269,-13.16175 -15.34721,-21.00034 -35.06909,-22.16424 L 193.1356,724.4132 c -13.65244,-1.16032 -47.31479,22.00397 -20.89896,52.54187 17.83432,20.30919 42.27816,22.92203 47.909,33.19257 1.44569,5.39541 -0.96661,9.60828 -7.30649,9.60828 l -50.06376,-0.28205 -0.16752,29.26429 55.17774,0.50135 z m 137.72466,-363.45585 347.91216,381.01385 -695.86437,0 z" />
    </g>
  </g>
</svg>
